<?xml version="1.0" encoding="utf-8"?>
<svg id="master-artboard" viewBox="0 0 1436.267333984375 839.2206420898438" version="1.1" xmlns="http://www.w3.org/2000/svg" x="0px" y="0px" enable-background="new 0 0 1400 1100" width="1436.267333984375px" height="839.2206420898438px" xmlns:xlink="http://www.w3.org/1999/xlink"><rect id="ee-background" x="0" y="0" width="1436.267333984375" height="839.2206420898438" style="fill: white; fill-opacity: 0; pointer-events: none;"/>
<defs>
		<path d="M 0 0 H 1400 V 1100 H 0 V 0 Z" id="SVGID_5_"/>
	</defs><clipPath id="SVGID_2_">
		<use overflow="visible" xlink:href="#SVGID_5_"/>
	</clipPath><path d="M 991.299988 421.799988 H 1311.099976 V 707.599976 H 991.299988 V 421.799988 Z" fill="#E1E66F" transform="matrix(1, 0, 0, 1, 12.089111328125, -7.105427357601002e-15)"/><path fill="#CFDF65" d="M1005.5,458.6c22.8,7.3,34.6,37.7,22.6,58.4c14.1-2.1,26.2,16.4,18.7,28.5c10-2.6,21.5,1.5,27.6,9.8&#10;&#9;&#9;&#9;c6.1,8.4,6.5,20.5,0.9,29.3c15.7-0.1,29,17.1,24.9,32.3c15.8-8,37.3-1.3,45.9,14.1c15.7-22.1,47.9-30.7,72.5-19.1&#10;&#9;&#9;&#9;c19.7-20.6,50.9-29.3,78.4-22c31.4,8.4,55.6,42.4,49.4,74.2c-6.2,31.9-32.3,56.9-61.8,70.4s-62.4,17.1-94.7,20.5&#10;&#9;&#9;&#9;c-57.4,6-118.8,10.7-169.3-17.2c-47.7-26.4-77.5-80.4-78.9-134.9C940.4,548.5,965.4,495.6,1005.5,458.6z" transform="matrix(1, 0, 0, 1, 12.089111328125, -7.105427357601002e-15)"/><path fill="#CFDF65" d="M1357,617c-22-2.3-44.6-4.8-64.2-15c-19.6-10.2-35.8-30.2-34.8-52.3c-22.6-0.9-38.7-29.5-27.8-49.3&#10;&#9;&#9;&#9;c-19.7,2.6-39-17.3-35.8-36.9c-16.3,17.3-49.3,13.4-61-7.4c-9.1,16.6-37.8,15.8-46.1-1.2c-2.7,12.9-19.4,20.6-31,14.2&#10;&#9;&#9;&#9;c-3.8,17-31.1,21.7-40.5,7c-13,19.7-38.6,30.2-61.7,25.1c-23-5-42-25.2-45.6-48.5c54.7-43.3,117.3-78.6,186.9-83.5&#10;&#9;&#9;&#9;s141.7,15.9,194.4,61.6C1342.7,476.6,1364.9,547.7,1357,617z" transform="matrix(1, 0, 0, 1, 12.089111328125, -7.105427357601002e-15)"/><path fill="#8AC974" d="M1269.3,451.6c-8.6,15.6-9.5,35.1-2.4,51.5s22,29,39.2,33.4c-9.8,6.6-14.9,19.3-12.6,30.8&#10;&#9;&#9;&#9;c2.4,11.5,12.2,21.1,23.7,23.3c-16.1,5.9-23.2,28.3-13.6,42.5c-12.7-3.4-27.1,0.2-36.7,9.2c-9.6,9-14.2,23.1-11.7,36&#10;&#9;&#9;&#9;c-12-7.5-27.8-8.3-40.5-2.2c-12.7,6.1-21.9,19-23.5,33c-7-20.4-43.3-27.7-55.6-9.9c-3.2-20.6-28.7-34.3-47.7-25.6&#10;&#9;&#9;&#9;c0.9-11.3-9-21.2-20-24.2c-10.9-3-22.6-0.9-33.7,1.2c10.6-11.7,12.3-30.4,4.2-43.8c-8.2-13.4-25.6-20.5-40.8-16.5&#10;&#9;&#9;&#9;c14.5-17,12.7-45.4-3.8-60.5c-4.9-4.5-11.2-8.5-12.5-15c-0.9-4.7,1.1-9.4,2.4-14.1c6.1-22-7.5-47.6-29.2-54.8&#10;&#9;&#9;&#9;c6.1-13,1.1-29.3-11.6-36.2c-52.2,7.4-91.9,55.8-104.2,107s-0.7,105.5,18.8,154.4c11.6,28.9,26.2,57.1,47.3,80.1&#10;&#9;&#9;&#9;c27,29.5,63,49,99.3,65.8c85.1,39.4,183,67,272.1,37.4c35.6-11.8,67.8-32.2,96.3-56.6c17.1-14.6,33.1-31,44.5-50.4&#10;&#9;&#9;&#9;c18.4-31.3,23.5-68.4,27.6-104.5c6.1-53,10.5-108.3-8.3-158.2c-18.8-49.9-67.7-92.5-120.7-86.7c-14.8,1.6-29.7,7.3-39.6,18.4&#10;&#9;&#9;&#9;C1266.2,427.5,1261.9,438.7,1269.3,451.6z" transform="matrix(1, 0, 0, 1, 12.089111328125, -7.105427357601002e-15)" style="fill: rgb(178, 222, 82);"/><path fill="#8AC974" d="M1311.2,422.6c-34.3,14.2-76,8.6-105.3-14.1c-7.3,11-21.2,17.2-34.3,15.4c-13.1-1.9-24.7-11.7-28.6-24.4&#10;&#9;&#9;&#9;c-6.8,11.4-20.4,18.4-33.6,17.3s-25.5-10.2-30.3-22.6c-11.5,26.5-53,32.6-71.7,10.7c-0.7,16-11.6,31-26.5,36.7&#10;&#9;&#9;&#9;c-14.9,5.7-33,1.8-44.2-9.6c-13.4,33.1-59.3,47.7-89.4,28.5c-9.9,13.2-29.5,18.1-44.5,11.1c-15-7-23.8-25.1-20.1-41.3&#10;&#9;&#9;&#9;c-44.8,9.4-93.2-29.5-93.6-75.3c-15.2-18.1-30.6-38.6-40.2-60.1c-9.6-21.5-12.7-47.1-3.1-68.6c9.7-21.6,30.7-36,51.8-46.8&#10;&#9;&#9;&#9;c106.4-54.5,237.9-45,346.7,4.5C1153,233.6,1236.9,328.8,1311.2,422.6z" transform="matrix(1, 0, 0, 1, 12.089111328125, -7.105427357601002e-15)" style="fill: rgb(178, 222, 82);"/><path fill="#66C07F" d="M97.2-19.3c5.9,75.1,53.5,142.4,114.4,186.7s134.2,68.2,207.5,85.5c60.5,14.2,123.3,24.4,184.5,14.2&#10;&#9;&#9;&#9;c8.9,10.4,23.4,13.2,36.6,9.6c13.2-3.6,23.9-15.2,26.3-28.7c10.4,13.7,29.2,20.2,45.9,16s30-19.1,32.6-36&#10;&#9;&#9;&#9;c11.1,10.2,28.5,12.7,42,6.1s22.2-21.9,21-36.9c3.8,13.1,21.5,17.6,34.1,12.2s21-17.1,28.8-28.3c-5.5,11.1,0.3,22.1,7.8,31.9&#10;&#9;&#9;&#9;s20.8,14.8,33,12.4c-17.1,12.1-20.2,39.8-6.1,55.3c14.1,15.5,42,15.2,55.7-0.7c-0.4,21.1,21,38.1,42.1,38.4&#10;&#9;&#9;&#9;c21.1,0.3,40.6-12.2,55-27.6c4.9,11.6,16.3,20.1,28.8,21.6c12.5,1.5,25.6-4.1,33.1-14.2c18.8,15.8,45.6,20.8,67.5,9.5&#10;&#9;&#9;&#9;c-12.4,9.5-14.4,30.6-8.8,45.1c5.6,14.6,21.4,24.5,36.9,23.3c-11.4,6.9-17.5,21.7-14.2,34.7c3.3,13,15.7,23.1,29.1,23.7&#10;&#9;&#9;&#9;c-9.3,12.3-9.3,30.9,0.2,43.2c9.4,12.3,27.4,17.1,41.7,11.2c-4.5,16.3,2.7,35.2,17,44.3c14.3,9.1,34.4,7.8,47.4-3.1&#10;&#9;&#9;&#9;c-11.3,19.2,5.6,45,27,51.3c21.4,6.2,44.1-0.9,65.3-8c6-197.6,6.6-395.8-16.7-592.1c-295.9-92.1-609.5-126.6-918.3-101.1&#10;&#9;&#9;&#9;C357.5-108.7,219.5-85,97.3-23.2C102.6-25.8,91.8-16.7,97.2-19.3z" transform="matrix(1, 0, 0, 1, 12.089111328125, -7.105427357601002e-15)"/><path fill="#66C07F" d="M71.9-42.3c46.4,7.9,82.7,54.8,78.7,101.7c8.9-8.6,24.1-9.5,33.9-2c9.8,7.5,13.1,22.4,7.2,33.2&#10;&#9;&#9;&#9;c8.5-8.7,22.5-11.4,33.7-6.6s18.8,16.9,18.3,29c6.3-9.5,19.2-14.1,30.1-10.8s18.9,14.4,18.8,25.9c4.1-10.1,15.4-16.8,26.2-15.6&#10;&#9;&#9;&#9;c10.9,1.2,20.4,10.3,22.1,21c3.6-11.1,15.2-19.1,26.9-18.4c11.7,0.6,22.3,9.8,24.7,21.3c5-13.4,21-21.6,34.8-17.9&#10;&#9;&#9;&#9;c13.8,3.7,23.5,18.9,21,33c11.7-13.6,33.6-16.8,48.8-7.2c15.1,9.6,21.5,30.8,14.2,47.2c11.1-9.3,29.1-8.8,39.7,1&#10;&#9;&#9;&#9;s12.3,27.8,3.8,39.5c23.9-12.4,47.9-17.1,74.8-15.1c5.6,12.8,7.9,27,6.6,40.8c13.3-11.5,34.4-12.8,49.1-3.1&#10;&#9;&#9;&#9;c14.7,9.8,21.6,29.8,16.1,46.5c12.8-11.6,35.2-10,46.2,3.2c11.1,13.2,8.6,35.6-5.1,46.1c6.5-4.7,15.6,2.8,17.3,10.7&#10;&#9;&#9;&#9;s-0.4,16.3,2.1,24c4.1,12.6,19.5,18.6,32.6,16.4c13.1-2.1,24.3-10.3,35-18.2c10.7,0.7,16.4,12.5,18.3,23.1&#10;&#9;&#9;&#9;c1.9,10.6-4.2,22-14,26.4c9.3-6.6,23.1-6,31.9,1.4c8.7,7.4,11.6,20.9,6.7,31.2c8.8,0,17.7,0.1,26.5,0.1&#10;&#9;&#9;&#9;c13.9,12.2,9.1,38.9-8.2,45.4c9.2,2,15.5,12.5,13,21.6s-13.2,14.9-22.2,12c15.3,4.3,20.3,27.8,8.1,37.9&#10;&#9;&#9;&#9;c23.2-2.9,42.9,26.8,31.3,47.1c12.4-7.5,29.5,0.2,37.2,12.5c7.7,12.3,8.6,27.5,9.3,41.9c21.7-20.7,63-13,75.7,14.2&#10;&#9;&#9;&#9;c10.1-8.4,25.9-9,36.6-1.3s15.2,22.8,10.5,35c20.3-4.3,41.6,16.4,37.8,36.9c2.5-5.9,4.9-11.8,7.4-17.7c7.2-17.3,42.1-8.5,47.5,9.5&#10;&#9;&#9;&#9;c12.5-20.8,44.9-25.8,63.2-9.8c8.4-17.4,36-21,48.6-6.3c-11-17.2-8-42.1,6.9-56.2c14.8-14.1,39.8-15.9,56.5-4.1&#10;&#9;&#9;&#9;c-9.2-16.7-7.9-38.6,3-54.2c11-15.6,31.2-24.1,50-21.1c5.3-14.7,23.7-23.2,38.3-17.6c-5.4,87-22.6,177.3-28,264.3&#10;&#9;&#9;&#9;c-0.8,12.7-2.3,26.9-12,35.2c-7.2,6.1-17.3,7.3-26.7,8.3c-291,28.1-588.1-9.3-863-108.6c-129.3-46.7-256.1-108.6-354.1-205&#10;&#9;&#9;&#9;C26.8,448.9-43.3,246.1-18.5,53.3C-15.2,27.7-9.8,1,6.7-18.9S46.5-46.7,71.9-42.3z" transform="matrix(1, 0, 0, 1, 12.089111328125, -7.105427357601002e-15)" style="fill: rgb(135, 188, 77);"/><path fill="#35A761" d="M855.4,1c0.9,1.4,1.7,2.7,2.6,4.1c1.1,13.2-7.1,26.7-19.4,31.8s-27.6,1.4-36.2-8.7&#10;&#9;&#9;&#9;c-2.5,12.1-12.9,22.2-25.1,24.4s-25.4-3.7-32-14.2c4.5,10.9-0.7,24.8-11.3,30c-10.6,5.2-28.4,5.4-34.3-4.8&#10;&#9;&#9;&#9;c4.4,13.9-3.3,30.6-16.8,36.2s-30.7-0.7-37.5-13.6c3.4,13.4-3.5,28.6-15.7,35c-12.2,6.3-28.7,3.2-37.6-7.3&#10;&#9;&#9;&#9;c-5.1,7.8-11.3,15.3-19.5,19.7c-8.2,4.4-18.9,5.2-26.6,0c-7.7-5.2-10.7-17.2-4.7-24.4c-10.3,8.2-26.8,7.1-35.8-2.6&#10;&#9;&#9;&#9;c-9-9.6-9-26.2-0.1-35.9c-14.5,8-35.6-2.8-37.6-19.3c-4.6,8.4-15.6,12.8-24.7,9.9c-9.2-2.9-13-12.3-11.9-21.9&#10;&#9;&#9;&#9;c1.1,11.9-7.5,24-19.1,26.8c-11.6,2.9-24.8-3.8-29.4-14.9C378,63.6,364,71.7,351,69.4c-13-2.3-23.5-14.6-23.6-27.8&#10;&#9;&#9;&#9;c-9.1,10.5-24.8,14.7-38,10.2c-13.2-4.5-23-17.3-23.9-31.2c-13.8,15.7-41.3,10.3-55.1-5.4s-17.6-37.5-20.9-58.1&#10;&#9;&#9;&#9;c169.6-6.6,341.1-16.3,510.7-22.9c29-1.1,58.7-2.2,86.6,6C814.6-51.6,839.8-23.6,855.4,1z" transform="matrix(1, 0, 0, 1, 12.089111328125, -7.105427357601002e-15)"/><path fill="#35A761" d="M-28.8,626.8c3-1-1.9,3.6-3.3,0.8C65.4,759.1,179.3,883,300.6,993l1096.9,0.3c2.6-0.8,11.5-3,14.1-3.8&#10;&#9;&#9;&#9;c-3.8-69.4-4.4-142.5-3.3-212c-12.8,2.6-25.9,11-30.1,23.3c-21.8-15.5-56.9-4.9-66.6,20c-8.7-9.8-22.6-14.5-35.4-12.2&#10;&#9;&#9;&#9;c-12.8,2.3-24.2,11.7-28.9,23.9c-1.2-10.8-8.7-20.7-18.8-24.8c-10.1-4.1-22.3-2.2-30.7,4.7c3-12.2-4.3-26.1-16.1-30.6&#10;&#9;&#9;&#9;c-11.8-4.5-26.4,1.1-32.3,12.2c-3.9-12.8-16.1-22.6-29.5-23.5c-13.3-1-26.9,6.9-32.6,19c-3.5-9.9-12.9-17.6-23.3-19.1&#10;&#9;&#9;&#9;s-26.8,8.5-33,17c2.8-12.7-3-26.8-14-33.8s-26.2-6.5-36.6,1.3c1.7-7.7-3.1-16.3-10.5-19s-16.6,1-20.2,8&#10;&#9;&#9;&#9;c5.2-13.4-1.3-30.3-14.1-36.9c-12.8-6.6-30.2-2-38.2,10c6.9-13.1,12.5-28.2,8.3-42.3c-4.3-14.1-22.8-24.1-34.5-15.1&#10;&#9;&#9;&#9;c7.2-6.8,8.7-18.9,3.3-27.2c-5.4-8.3-17-12-26.2-8.3c8.8-5.2,16.6-14.2,15.8-24.4c-0.7-10.2-13-19.5-21-13.2&#10;&#9;&#9;&#9;c8.1-8.4-0.1-25.3-11.7-24.2c7.7-5.7,8.6-18.6,1.7-25.3c-6.9-6.7-19.8-5.5-25.3,2.4c8.1-11.3,7.7-27.9-0.9-38.8s-24.8-15-37.6-9.7&#10;&#9;&#9;&#9;c10.3-9.8,18.2-24,14.9-37.8c-3.4-13.8-22.4-22.8-32.7-13c2.9-12.5-6.4-26.5-19-28.7c-12.7-2.2-26.1,8-27.5,20.7&#10;&#9;&#9;&#9;c-8.6-14.2-30.3-18.2-43.3-7.9c1.9-11.9,3.6-24.7-2.2-35.2c-5.7-10.5-22.2-15.6-29.8-6.3c7.1-6.1,8.9-17.6,4-25.6&#10;&#9;&#9;&#9;c-4.9-8-16-11.6-24.7-7.9c6.5-6.4,12.6-13.8,15.1-22.7c2.4-8.8,0.4-19.4-6.9-25s-19.9-3.4-23.2,5.1c7.4-7.1,5.8-20.5-1.9-27.2&#10;&#9;&#9;&#9;c-7.7-6.7-19.5-7.3-28.9-3.4s-16.7,11.8-22.4,20.3c4.5-10.7-2.9-24.6-14.3-26.8c-11.4-2.2-23.4,8.1-23.1,19.7&#10;&#9;&#9;&#9;c2.4-9-1.9-19.4-9.9-24.1c-8-4.8-27.6-1.5-34.3,4.9c7.5-6.8,9.9-18.6,5.6-27.8s-14.8-15-24.8-13.8c8.7-8.1,10.9-22.3,5-32.6&#10;&#9;&#9;&#9;s-19.2-15.7-30.5-12.4c6.6-19.9-5.9-44.1-26-50.1c-20.1-6-43.9,7.2-49.3,27.5c-4.7-8.4-14.6-13.5-24.2-12.6s-18.2,8-21.2,17.1&#10;&#9;&#9;&#9;c-3.8-11.9-24.7-11.4-27.9,0.7c-1.4-8.3-9.2-15.1-17.6-15.4c-8.4-0.3-16.7,5.9-18.6,14.2c-6-10.4-21.4-13.8-31.2-6.9&#10;&#9;&#9;&#9;c-10.4-17.9-36.7-24.2-54.1-12.8c5.8-14.3,1.1-32-11-41.6s-30.5-10-43-1.1c7.2-11.2,4.5-27.5-5.9-35.8s-26.9-7.4-36.2,2&#10;&#9;&#9;&#9;c5.2-17.6,0.8-37.7-11.3-51.5S5.7-4-12.5-1.3C-17.9,203.4-23.4,422.1-28.8,626.8z" transform="matrix(1, 0, 0, 1, 12.089111328125, -7.105427357601002e-15)" style="fill: rgb(85, 157, 57);"/><path fill="#35A761" d="M1409.1,490.3c-9.4,3.9-21.2,1-27.8-6.8s-7.3-20-1.8-28.6c-6.3,7-17.9,8.3-25.9,3.3s-12.2-15.2-10.7-24.5&#10;&#9;&#9;&#9;c-12.4,9.1-30.4,9.9-43.5,1.8s-20.5-24.5-17.9-39.7c-11.6,15.9-36,20.6-52.7,10.3c-16.8-10.3-26.3-32.4-17.3-49.9&#10;&#9;&#9;&#9;c-12.7,8.7-32.3,4.9-40.9-7.9c-8.6-12.8-4.5-32.4,8.4-40.8c-14.2,3.3-30-7.9-31.6-22.4c-1.6-14.5,11.4-28.9,26-28.8&#10;&#9;&#9;&#9;c-13-1.6-26.4-7.4-32.7-18.9c-6.3-11.5-1.9-28.8,10.7-32.5c-9.3,1.2-19.2,2.4-27.8-1.2c-8.7-3.6-18.7-13.4-15-22.1&#10;&#9;&#9;&#9;c2.5,10.7-3.9,22.7-14.2,26.5c-10.3,3.8-23-1.1-28.1-10.8c-3.4,13.8-15.8,24.9-29.9,26.7c-14.1,1.8-28.9-5.8-35.7-18.3&#10;&#9;&#9;&#9;c-3.9,10-16.2,16-26.5,12.7c-10.3-3.2-15-19.1-12.6-29.6c-11.2,9.9-29.3,11.1-41.7,2.6s-17.8-25.8-12.6-39.8&#10;&#9;&#9;&#9;c-12.2-0.5-23.7-8.4-28.5-19.6c-4.8-11.2-2.5-25,5.6-34.1c2.3-0.4,4.6-0.8,6.8-1.2c-9.6,0.3-19.9,0.4-27.8-4.9&#10;&#9;&#9;&#9;c-8-5.3-11.4-18.3-4-24.4c-20.7-0.4-40.2-16.3-44.5-36.6s6.7-42.8,25.4-51.7c1.3,0.7,3.7-0.8,5-0.1h576.2&#10;&#9;&#9;&#9;C1446.4,148.4,1446.3,323.2,1409.1,490.3z" transform="matrix(1, 0, 0, 1, 12.089111328125, -7.105427357601002e-15)"/><path d="M 623.9000244140625 -43.900001525878906 L 635.5999755859375 244.10000610351562 L 490.3999938964844 539.5999755859375 L 546.2000122070312 572.5999755859375 L 646.4000244140625 352.79998779296875 L 659.9000244140625 236.5 L 644.9000244140625 -43.900001525878906 Z" fill="#2C864F" transform="matrix(1, 0, 0, 1, 12.089111328125, -7.105427357601002e-15)"/><path d="M 1013.9000244140625 -28 L 983.9000244140625 70.0999984741211 L 874.7000122070312 148.10000610351562 L 761.9000244140625 206.60000610351562 L 635.5999755859375 327 L 647.9000244140625 257.5 L 752.9000244140625 190 L 864.2999877929688 137.8000030517578 L 938.9000244140625 62.599998474121094 L 943.4000244140625 -28 Z" fill="#2C864F" transform="matrix(1, 0, 0, 1, 12.089111328125, -7.105427357601002e-15)"/><path d="M 351.6000061035156 -43.900001525878906 L 351.6000061035156 171.60000610351562 L 268.29998779296875 310.5 L 242.89999389648438 460.6000061035156 L 318.5 476.29998779296875 L 311.1000061035156 312.3999938964844 L 383.1000061035156 184 L 383.1000061035156 -28 Z" fill="#2C864F" transform="matrix(1, 0, 0, 1, 12.089111328125, -7.105427357601002e-15)"/><path d="M 509.3999938964844 -52.900001525878906 L 517.4000244140625 49 L 575.0999755859375 184 L 623.9000244140625 291.3999938964844 L 647.9000244140625 257.5 L 592.4000244140625 171.60000610351562 L 530.9000244140625 49 L 529.4000244140625 -35.099998474121094 Z" fill="#2C864F" transform="matrix(1, 0, 0, 1, 12.089111328125, -7.105427357601002e-15)"/><path d="M 731.9000244140625 -35.099998474121094 L 641.9000244140625 86.0999984741211 L 641.9000244140625 131.60000610351562 L 742.5 -28 Z" fill="#2C864F" transform="matrix(1, 0, 0, 1, 12.089111328125, -7.105427357601002e-15)"/><path fill="#2C864F" d="M887.5-39.8c-3.4-1.3-168.1,726.8-168.1,726.8l32,48.5L905.9-28L887.5-39.8z" transform="matrix(1, 0, 0, 1, 12.089111328125, -7.105427357601002e-15)"/><path fill="#2C864F" d="M1475.2,950.4c-194.2-16.6-392.5-44.3-564.6-135.8C764,736.7,644,616.4,501.5,531.1&#10;&#9;&#9;&#9;C329.4,428.1,125.6,379-74.5,392.3C90.1,611.3,301.2,800.4,550,915s531.2,159.8,801.7,116.3&#10;&#9;&#9;&#9;C1404.6,1022.8,1464.8,1002.9,1475.2,950.4z" transform="matrix(1, 0, 0, 1, 12.089111328125, -7.105427357601002e-15)"/><path fill="#147549" d="M1419.2,1034c-473.5,65.2-958.1,61-1428.2-25c8.6-209.1-15.5-418.2-81.6-616.8&#10;&#9;&#9;&#9;&#9;C159.6,396.3,407.7,486,602.7,643c62.7,50.5,120.1,107.7,186.8,152.6c183.8,123.7,416.6,141.8,637.7,154.8&#10;&#9;&#9;&#9;&#9;C1418.1,975.9,1418,1006.8,1419.2,1034z" transform="matrix(1, 0, 0, 1, 12.089111328125, -7.105427357601002e-15)"/><path d="M 668.2999877929688 -27.399999618530273 L 678.5999755859375 244.10000610351562 L 656.4000244140625 393.6000061035156 L 567.9000244140625 645.4000244140625 L 634.4000244140625 707.5999755859375 L 685.4000244140625 392.20001220703125 L 703.4000244140625 244.3000030517578 L 678.5999755859375 -35.099998474121094 Z" fill="#147549" transform="matrix(1, 0, 0, 1, 12.089111328125, -7.105427357601002e-15)"/><path d="M 789 -43.900001525878906 L 686.9000244140625 170.60000610351562 L 686.9000244140625 216 L 798 -35.099998474121094 Z" fill="#147549" transform="matrix(1, 0, 0, 1, 12.089111328125, -7.105427357601002e-15)"/><path d="M 398.8999938964844 17 L 398.8999938964844 185 L 275.8999938964844 477 L 324.3999938964844 501 L 427.3999938964844 190 L 427.3999938964844 -28 L 398.8999938964844 -28 Z" fill="#147549" transform="matrix(1, 0, 0, 1, 12.089111328125, -7.105427357601002e-15)"/><path d="M 292.3999938964844 -40.79999923706055 L 412.3999938964844 184 L 405.3999938964844 145 L 300.3999938964844 -43.900001525878906 Z" fill="#147549" transform="matrix(1, 0, 0, 1, 12.089111328125, -7.105427357601002e-15)"/><path fill="#147549" d="M601.4-35.1c-2,5.1-53,121.1-53,121.1l-136,68.9l15,35l131-95l48-123L601.4-35.1z" transform="matrix(1, 0, 0, 1, 12.089111328125, -7.105427357601002e-15)"/><g transform="matrix(1, 0, 0, 1, 12.089111328125, -7.105427357601002e-15)">
				<path fill="#005648" d="M1415.6,1102.3c-474.9,94-971.6,103.8-1447.1,12.8c-20.1-216.1-29.6-437.5-32.7-654.5&#10;&#9;&#9;&#9;&#9;&#9;c178.1,13.9,340.5,104.4,489.9,202.2s295.2,206.5,463.9,264.9c170.3,59,359.2,62.8,531.7,10.9&#10;&#9;&#9;&#9;&#9;&#9;C1415.7,991.1,1414.3,1049.5,1415.6,1102.3z" style="fill: rgb(15, 89, 56);"/>
				<path d="M 236.89999389648438 -35.099998474121094 L 150.3000030517578 122.5999984741211 L 110.19999694824219 336.29998779296875 L 89.9000015258789 521.5999755859375 L 157.39999389648438 550 L 150.3000030517578 353.6000061035156 L 182.8000030517578 128.60000610351562 L 262.3999938964844 -28.899999618530273 Z" fill="#005648" style="fill: rgb(15, 89, 56);"/>
				<path d="M 463.3999938964844 -35.099998474121094 L 449.8999938964844 188.60000610351562 L 373.3999938964844 327 L 275.8999938964844 592.0999755859375 L 362.8999938964844 659.7999877929688 L 369.6000061035156 575.5999755859375 L 451.3999938964844 315.6000061035156 L 490.3999938964844 216 L 490.3999938964844 -35.099998474121094 Z" fill="#005648" style="fill: rgb(15, 89, 56);"/>
				<path d="M 853.4000244140625 -52.900001525878906 L 779.2999877929688 145.39999389648438 L 721.4000244140625 425.6000061035156 L 661.4000244140625 739.0999755859375 L 623.9000244140625 811.0999755859375 L 751.4000244140625 896.4000244140625 L 728.9000244140625 749.5 L 766.9000244140625 460.6000061035156 L 812.7000122070312 167.1999969482422 L 899.9000244140625 -35.099998474121094 Z" fill="#005648" style="fill: rgb(15, 89, 56);"/>
			</g><path fill="#004842" d="M1409.1,930.4c-198.3,25.8-386.9,133.1-586,113.7c-157.5-15.4-295.4-108-426.6-196.5S125,669-33,659.8&#10;&#9;&#9;&#9;l10.4,473.2h1462.4L1409.1,930.4z" transform="matrix(1, 0, 0, 1, 12.089111328125, -7.105427357601002e-15)" style="fill: rgb(15, 92, 58);"/><path fill="#00323B" d="M-35,792.2c163.7,35.9,316.4,108.7,471.8,171.5s318.9,116.5,486.4,111.2c171.6-5.5,345.5-82.8,516.5-67.6&#10;&#9;&#9;&#9;V1133H-22.6L-35,792.2z" transform="matrix(1, 0, 0, 1, 12.089111328125, -7.105427357601002e-15)"/><path fill="#004842" d="M505.3,937c11.5-13.5,23-27.1,34.4-40.6c-13.7,8.4-29.4,13.6-45.4,15c13.6-13.1,27.1-26.2,40.7-39.3&#10;&#9;&#9;&#9;c-22.9,7.2-45.7,14.3-68.6,21.5c25.9-19.1,51.9-38.1,77.8-57.2c-29.1,7.7-56.9,20.1-82.1,36.5c28-27.6,56-55.2,84.1-82.8&#10;&#9;&#9;&#9;c-33.1,16.7-63.1,39.7-87.9,67.3c15.6-28.5,31.2-56.9,46.8-85.4c-18.8,32-41.4,61.9-67.2,88.7c6.5-15.5,13.1-30.9,19.6-46.4&#10;&#9;&#9;&#9;c-16.4,8.2-32.7,16.4-49.1,24.6c24.6-24.9,49.2-49.8,73.8-74.7c-31.8,15-61.5,34.4-88,57.5c9.4-24,18.9-48.1,28.3-72.1&#10;&#9;&#9;&#9;c-15.6,21.9-31.2,43.9-46.7,65.8c2.5-13.5,5-26.9,7.6-40.4c-6.5,14.5-13.1,29-19.6,43.5c0.1-17.9,0.3-35.9,0.4-53.8&#10;&#9;&#9;&#9;c-8,23.6-11.6,48.6-10.5,73.5c20.4,20.8,45.5,44,68.8,61.4C446.1,916.8,476.7,931.8,505.3,937z" transform="matrix(1, 0, 0, 1, 12.089111328125, -7.105427357601002e-15)"/>
</svg>