<?xml version="1.0" encoding="utf-8"?>
<svg id="master-artboard" viewBox="0 0 1400 980" version="1.1" xmlns="http://www.w3.org/2000/svg" x="0px" y="0px" enable-background="new 0 0 1400 980" width="1400px" height="980px"><rect id="ee-background" x="0" y="0" width="1400" height="980" style="fill: rgb(142, 167, 208); fill-opacity: 1; pointer-events: none;"/>
<path d="M 836.111984 801.14502 A 148.658005 148.658005 0 0 1 687.453979 949.803024 A 148.658005 148.658005 0 0 1 538.795975 801.14502 A 148.658005 148.658005 0 0 1 687.453979 652.487015 A 148.658005 148.658005 0 0 1 836.111984 801.14502 Z" fill="#60718D" transform="matrix(1, 0, 0, 1, 0, -7.105427357601002e-15)"/><path d="M 116 750 H 1284 V 980 H 116 V 750 Z" fill="#60718D" transform="matrix(1, 0, 0, 1, 0, -7.105427357601002e-15)"/><path d="M 361.937996 752.411011 A 122.969002 91.161003 0 0 1 238.968994 843.572014 A 122.969002 91.161003 0 0 1 115.999992 752.411011 A 122.969002 91.161003 0 0 1 238.968994 661.250008 A 122.969002 91.161003 0 0 1 361.937996 752.411011 Z" fill="#60718D" transform="matrix(1, 0, 0, 1, 0, -7.105427357601002e-15)"/><path d="M 617.446991 688.544006 A 168.75 168.75 0 0 1 448.696991 857.294006 A 168.75 168.75 0 0 1 279.946991 688.544006 A 168.75 168.75 0 0 1 448.696991 519.794006 A 168.75 168.75 0 0 1 617.446991 688.544006 Z" fill="#60718D" transform="matrix(1, 0, 0, 1, 0, -7.105427357601002e-15)"/><path d="M 1085.399033 723.924988 A 148.658005 148.658005 0 0 1 936.741028 872.582993 A 148.658005 148.658005 0 0 1 788.083023 723.924988 A 148.658005 148.658005 0 0 1 936.741028 575.266983 A 148.658005 148.658005 0 0 1 1085.399033 723.924988 Z" fill="#60718D" transform="matrix(1, 0, 0, 1, 0, -7.105427357601002e-15)"/><path d="M 1284.001022 768.20697 A 135.559006 123.449997 0 0 1 1148.442017 891.656967 A 135.559006 123.449997 0 0 1 1012.883011 768.20697 A 135.559006 123.449997 0 0 1 1148.442017 644.756973 A 135.559006 123.449997 0 0 1 1284.001022 768.20697 Z" fill="#60718D" transform="matrix(1, 0, 0, 1, 0, -7.105427357601002e-15)"/>
<path fill="#7F2E19" d="M1281,753H119c-1.657,0-3-1.343-3-3v-14c0-1.657,1.343-3,3-3h1162c1.657,0,3,1.343,3,3v14&#10;&#9;&#9;C1284,751.657,1282.657,753,1281,753z" transform="matrix(1, 0, 0, 1, 0, -7.105427357601002e-15)"/><path d="M 221.613998 753 H 249.665998 V 980 H 221.613998 V 753 Z" fill="#420104" transform="matrix(1, 0, 0, 1, 0, -7.105427357601002e-15)"/><path d="M 221.613998 753 H 249.665998 V 781.052 H 221.613998 V 753 Z" fill="#320103" transform="matrix(1, 0, 0, 1, 0, -7.105427357601002e-15)"/><path d="M 1150.333008 753 H 1178.385008 V 980 H 1150.333008 V 753 Z" transform="matrix(-1, -4.4871339283103495e-11, 4.4871339283103495e-11, -1, 2328.7189941406245, 1732.9999999999998)" fill="#420104"/><path d="M 1150.333008 753 H 1178.385008 V 781.052 H 1150.333008 V 753 Z" transform="matrix(-1, -4.4871339283103495e-11, 4.4871339283103495e-11, -1, 2328.7189941406245, 1534.0522460937498)" fill="#320103"/><path fill="#F4BB3A" d="M518,856.75V980H354V856.75c0-4.28,3.47-7.75,7.75-7.75h148.5C514.53,849,518,852.47,518,856.75z" transform="matrix(1, 0, 0, 1, 0, -7.105427357601002e-15)"/><path d="M 354 926 H 518 V 980 H 354 V 926 Z" fill="#ED7C31" transform="matrix(1, 0, 0, 1, 0, -7.105427357601002e-15)"/><path d="M 421.5 849 H 450.5 V 980 H 421.5 V 849 Z" fill="#B55232" transform="matrix(1, 0, 0, 1, 0, -7.105427357601002e-15)"/><path fill="#B55232" d="M386.833,886.833h-18.667c-1.381,0-2.5-1.119-2.5-2.5v-18.667c0-1.381,1.119-2.5,2.5-2.5h18.667&#10;&#9;&#9;c1.381,0,2.5,1.119,2.5,2.5v18.667C389.333,885.714,388.214,886.833,386.833,886.833z" transform="matrix(1, 0, 0, 1, 0, -7.105427357601002e-15)"/><path d="M 382.5 875 A 5 5 0 0 1 377.5 880 A 5 5 0 0 1 372.5 875 A 5 5 0 0 1 377.5 870 A 5 5 0 0 1 382.5 875 Z" fill="#F09B36" transform="matrix(1, 0, 0, 1, 0, -7.105427357601002e-15)"/><path fill="#F4BB3A" d="M1072.972,881.212V980h-164v-98.788c0-3.431,3.47-6.212,7.75-6.212h148.5&#10;&#9;&#9;C1069.502,875,1072.972,877.781,1072.972,881.212z" transform="matrix(1, 0, 0, 1, 0, -7.105427357601002e-15)"/><path d="M 908.971985 936.718018 H 1072.971985 V 980.000019 H 908.971985 V 936.718018 Z" fill="#ED7C31" transform="matrix(1, 0, 0, 1, 0, -7.105427357601002e-15)"/><path d="M 976.471985 875 H 1005.471985 V 980 H 976.471985 V 875 Z" fill="#B55232" transform="matrix(1, 0, 0, 1, 0, -7.105427357601002e-15)"/><path fill="#B55232" d="M1054.5,912.833h-24.361c-1.381,0-2.5-1.119-2.5-2.5v-18.667c0-1.381,1.119-2.5,2.5-2.5h24.361&#10;&#9;&#9;c1.381,0,2.5,1.119,2.5,2.5v18.667C1057,911.714,1055.881,912.833,1054.5,912.833z" transform="matrix(1, 0, 0, 1, 0, -7.105427357601002e-15)"/><path fill="#D6562B" d="M633.167,801.667h-106c-5.063,0-9.167,4.104-9.167,9.167V980h124.333V810.833&#10;&#9;&#9;C642.333,805.771,638.229,801.667,633.167,801.667z" transform="matrix(1, 0, 0, 1, 0, -7.105427357601002e-15)"/><path d="M 518 926 H 642.333 V 980 H 518 V 926 Z" fill="#AE3E1F" transform="matrix(1, 0, 0, 1, 0, -7.105427357601002e-15)"/><path d="M 577.5 801.666992 H 582.833 V 979.999985 H 577.5 V 801.666992 Z" fill="#7F2E19" transform="matrix(1, 0, 0, 1, 0, -7.105427357601002e-15)"/><path d="M 567.669983 822.5 H 592.669983 V 833.5 H 567.669983 V 822.5 Z" fill="#F09B36" transform="matrix(1, 0, 0, 1, 0, -7.105427357601002e-15)"/><path d="M 567.669983 801.669983 H 592.669983 V 822.499983 H 567.669983 V 801.669983 Z" fill="#F4BB3A" transform="matrix(1, 0, 0, 1, 0, -7.105427357601002e-15)"/><path fill="#AE3E1F" d="M628.773,894.636l-11.553-21.864c-0.133-0.252-0.313-0.446-0.477-0.661v-14.482h0.07&#10;&#9;&#9;c0.542,0,0.981-0.439,0.981-0.981s-0.439-0.981-0.981-0.981h-7.709c-0.542,0-0.981,0.439-0.981,0.981s0.439,0.981,0.981,0.981h0.07&#10;&#9;&#9;v14.482c-0.164,0.215-0.344,0.409-0.477,0.661l-11.553,21.864c-1.696,3.21,0.631,7.072,4.262,7.072h11.553h11.553&#10;&#9;&#9;C628.142,901.708,630.47,897.846,628.773,894.636z" transform="matrix(1, 0, 0, 1, 0, -7.105427357601002e-15)"/>
<path d="M 1042.31897 603 L 976 556.424988" fill="none" stroke="#A9B3C1" stroke-width="6" stroke-miterlimit="10" transform="matrix(1, 0, 0, 1, 0, -7.105427357601002e-15)"/><path d="M 1004.429993 576.190979 L 1019.807007 550.5" fill="none" stroke="#A9B3C1" stroke-width="6" stroke-miterlimit="10" transform="matrix(1, 0, 0, 1, 0, -7.105427357601002e-15)"/><path d="M 1038 611.5 L 997 628.945984" fill="none" stroke="#A9B3C1" stroke-width="6" stroke-miterlimit="10" transform="matrix(1, 0, 0, 1, 0, -7.105427357601002e-15)"/><path d="M 1054.5 610 L 1105.5 649" fill="none" stroke="#A9B3C1" stroke-width="6" stroke-miterlimit="10" transform="matrix(1, 0, 0, 1, 0, -7.105427357601002e-15)"/><path d="M 1057 597.5 L 1112 569" fill="none" stroke="#A9B3C1" stroke-width="6" stroke-miterlimit="10" transform="matrix(1, 0, 0, 1, 0, -7.105427357601002e-15)"/><path d="M 1091.327026 579.711975 L 1106 593.596985" fill="none" stroke="#A9B3C1" stroke-width="6" stroke-miterlimit="10" transform="matrix(1, 0, 0, 1, 0, -7.105427357601002e-15)"/><path fill="#69CAD3" d="M817.611,649v75.5c0,4.69-3.81,8.5-8.5,8.5h-56.5c-4.69,0-8.5-3.81-8.5-8.5V649H817.611z" transform="matrix(1, 0, 0, 1, 0, -7.105427357601002e-15)"/><path d="M 279.5 668.25 H 495.5 V 733 H 279.5 V 668.25 Z" fill="#60718D" transform="matrix(1, 0, 0, 1, 0, -7.105427357601002e-15)"/><path fill="#A7A9AC" d="M342.75,564v125.25c0,6.21-5.04,11.25-11.25,11.25s-11.25-5.04-11.25-11.25V564H342.75z" transform="matrix(1, 0, 0, 1, 0, -7.105427357601002e-15)"/><path fill="#445D7B" d="M345.083,567.25h-27.292c-1.243,0-2.25-1.007-2.25-2.25v-4.25c0-1.243,1.007-2.25,2.25-2.25h27.292&#10;&#9;&#9;c1.243,0,2.25,1.007,2.25,2.25V565C347.333,566.243,346.326,567.25,345.083,567.25z" transform="matrix(1, 0, 0, 1, 0, -7.105427357601002e-15)"/><path fill="#C2CE2F" d="M342.75,609.41v79.84c0,6.21-5.04,11.25-11.25,11.25s-11.25-5.04-11.25-11.25v-66.87&#10;&#9;&#9;C326.34,614.86,334.17,610.08,342.75,609.41z" transform="matrix(1, 0, 0, 1, 0, -7.105427357601002e-15)"/><path fill="#929B23" d="M342.75,657.67v31.58c0,6.21-5.04,11.25-11.25,11.25s-11.25-5.04-11.25-11.25v-31.58H342.75z" transform="matrix(1, 0, 0, 1, 0, -7.105427357601002e-15)"/><path fill="#A7A9AC" d="M398.813,564v125.25c0,6.21-5.04,11.25-11.25,11.25s-11.25-5.04-11.25-11.25V564H398.813z" transform="matrix(1, 0, 0, 1, 0, -7.105427357601002e-15)"/><path fill="#445D7B" d="M401.146,567.25h-27.292c-1.243,0-2.25-1.007-2.25-2.25v-4.25c0-1.243,1.007-2.25,2.25-2.25h27.292&#10;&#9;&#9;c1.243,0,2.25,1.007,2.25,2.25V565C403.396,566.243,402.388,567.25,401.146,567.25z" transform="matrix(1, 0, 0, 1, 0, -7.105427357601002e-15)"/><path fill="#E3856E" d="M398.813,609.41v79.84c0,6.21-5.04,11.25-11.25,11.25s-11.25-5.04-11.25-11.25v-66.87&#10;&#9;&#9;C382.403,614.86,390.232,610.08,398.813,609.41z" transform="matrix(1, 0, 0, 1, 0, -7.105427357601002e-15)"/><path fill="#A54122" d="M398.813,657.67v31.58c0,6.21-5.04,11.25-11.25,11.25s-11.25-5.04-11.25-11.25v-31.58H398.813z" transform="matrix(1, 0, 0, 1, 0, -7.105427357601002e-15)"/><path fill="#A7A9AC" d="M454.875,564v125.25c0,6.21-5.04,11.25-11.25,11.25s-11.25-5.04-11.25-11.25V564H454.875z" transform="matrix(1, 0, 0, 1, 0, -7.105427357601002e-15)"/><path fill="#445D7B" d="M457.208,567.25h-27.292c-1.243,0-2.25-1.007-2.25-2.25v-4.25c0-1.243,1.007-2.25,2.25-2.25h27.292&#10;&#9;&#9;c1.243,0,2.25,1.007,2.25,2.25V565C459.458,566.243,458.451,567.25,457.208,567.25z" transform="matrix(1, 0, 0, 1, 0, -7.105427357601002e-15)"/><path fill="#69CAD3" d="M454.875,609.41v79.84c0,6.21-5.04,11.25-11.25,11.25s-11.25-5.04-11.25-11.25v-66.87&#10;&#9;&#9;C438.465,614.86,446.295,610.08,454.875,609.41z" transform="matrix(1, 0, 0, 1, 0, -7.105427357601002e-15)"/><path fill="#4F989E" d="M454.875,657.67v31.58c0,6.21-5.04,11.25-11.25,11.25s-11.25-5.04-11.25-11.25v-31.58H454.875z" transform="matrix(1, 0, 0, 1, 0, -7.105427357601002e-15)"/><path fill="#D8D9DA" d="M279.5,588v145h216V588H279.5z M480.5,718h-186V603h186V718z" transform="matrix(1, 0, 0, 1, 0, -7.105427357601002e-15)"/><path d="M 495.5 657.6699829101562 L 495.5 733 L 279.5 733 L 279.5 657.6699829101562 L 294.5 657.6699829101562 L 294.5 718 L 480.5 718 L 480.5 657.6699829101562 Z" fill="#A7A9AC" transform="matrix(1, 0, 0, 1, 0, -7.105427357601002e-15)"/><g transform="matrix(1, 0, 0, 1, 0, -7.105427357601002e-15)">
			<path fill="#FFFFFF" d="M329,679.5c0-7.5,0-15,0-22.5c0-2.574-4-2.578-4,0c0,7.5,0,15,0,22.5C325,682.074,329,682.078,329,679.5&#10;&#9;&#9;&#9;&#9;L329,679.5z"/>
		</g><g transform="matrix(1, 0, 0, 1, 0, -7.105427357601002e-15)">
			<path fill="#FFFFFF" d="M326.75,651c2.574,0,2.578-4,0-4C324.176,647,324.172,651,326.75,651L326.75,651z"/>
		</g><g transform="matrix(1, 0, 0, 1, 0, -7.105427357601002e-15)">
			<path fill="#FFFFFF" d="M385.5,679.5c0-7.5,0-15,0-22.5c0-2.574-4-2.578-4,0c0,7.5,0,15,0,22.5&#10;&#9;&#9;&#9;&#9;C381.5,682.074,385.5,682.078,385.5,679.5L385.5,679.5z"/>
		</g><g transform="matrix(1, 0, 0, 1, 0, -7.105427357601002e-15)">
			<path fill="#FFFFFF" d="M383.25,651c2.574,0,2.578-4,0-4C380.676,647,380.672,651,383.25,651L383.25,651z"/>
		</g><g transform="matrix(1, 0, 0, 1, 0, -7.105427357601002e-15)">
			<path fill="#FFFFFF" d="M442,679.5c0-7.5,0-15,0-22.5c0-2.574-4-2.578-4,0c0,7.5,0,15,0,22.5C438,682.074,442,682.078,442,679.5&#10;&#9;&#9;&#9;&#9;L442,679.5z"/>
		</g><g transform="matrix(1, 0, 0, 1, 0, -7.105427357601002e-15)">
			<path fill="#FFFFFF" d="M439.75,651c2.574,0,2.578-4,0-4C437.176,647,437.172,651,439.75,651L439.75,651z"/>
		</g><path d="M 707.515015 591.047974 H 731.451015 V 666.843971 H 707.515015 V 591.047974 Z" fill="#69CAD3" transform="matrix(1, 0, 0, 1, 0, -7.105427357601002e-15)"/><path fill="#69CAD3" d="M756.021,733h-73.08c-11.48,0-18.84-12.21-13.47-22.37l16.34-30.93l20.19-38.21&#10;&#9;&#9;c5.73-10.83,21.24-10.83,26.96,0l10.73,20.3l25.81,48.84C774.861,720.79,767.501,733,756.021,733z" transform="matrix(1, 0, 0, 1, 0, -7.105427357601002e-15)"/><path fill="#ED7C31" d="M817.611,695.25v29.25c0,4.69-3.81,8.5-8.5,8.5h-56.5c-4.69,0-8.5-3.81-8.5-8.5v-29.25H817.611z" transform="matrix(1, 0, 0, 1, 0, -7.105427357601002e-15)"/><path fill="#0C808B" d="M734.191,593.597h-29.418c-0.322,0-0.583-0.261-0.583-0.583v-5.039c0-0.322,0.261-0.583,0.583-0.583h29.418&#10;&#9;&#9;c0.322,0,0.583,0.261,0.583,0.583v5.039C734.775,593.336,734.514,593.597,734.191,593.597z" transform="matrix(1, 0, 0, 1, 0, -7.105427357601002e-15)"/><path fill="#5F0439" d="M756.021,733h-73.08c-11.48,0-18.84-12.21-13.47-22.37l8.08-15.3l8.26-15.63c2.38,0.12,4.77,0.01,7.11-0.31&#10;&#9;&#9;c10.25-1.39,19.7-6.11,29.13-10.35c6.94-3.13,14.18-6.07,21.64-7.25l17.72,33.54l8.09,15.3C774.861,720.79,767.501,733,756.021,733&#10;&#9;&#9;z" transform="matrix(1, 0, 0, 1, 0, -7.105427357601002e-15)"/><path fill="#34011E" d="M756.021,733h-73.08c-11.48,0-18.84-12.21-13.47-22.37c0,0,8.08-15.3,8.08-15.3c0.192-0.364,4.6,0,5.039,0&#10;&#9;&#9;c4.34,0,8.674-0.425,13.01-0.256c7.69,0.299,13.67,6.127,21.02,7.69c7.298,1.552,12.15-3.59,17.905-6.997&#10;&#9;&#9;c8.43-4.99,17.907-1.807,26.885-0.437l8.09,15.3C774.861,720.79,767.501,733,756.021,733z" transform="matrix(1, 0, 0, 1, 0, -7.105427357601002e-15)"/><path d="M 718.776978 655.75 A 2.25 2.25 0 0 1 716.526978 658 A 2.25 2.25 0 0 1 714.276978 655.75 A 2.25 2.25 0 0 1 716.526978 653.5 A 2.25 2.25 0 0 1 718.776978 655.75 Z" fill="#5F0439" transform="matrix(1, 0, 0, 1, 0, -7.105427357601002e-15)"/><path d="M 726.263029 635.780029 A 2.233 2.233 0 0 1 724.030029 638.013029 A 2.233 2.233 0 0 1 721.797029 635.780029 A 2.233 2.233 0 0 1 724.030029 633.547029 A 2.233 2.233 0 0 1 726.263029 635.780029 Z" fill="#5F0439" transform="matrix(1, 0, 0, 1, 0, -7.105427357601002e-15)"/><path d="M 735.239971 659.89502 A 1.895 1.895 0 0 1 733.344971 661.79002 A 1.895 1.895 0 0 1 731.449971 659.89502 A 1.895 1.895 0 0 1 733.344971 658.00002 A 1.895 1.895 0 0 1 735.239971 659.89502 Z" fill="#5F0439" transform="matrix(1, 0, 0, 1, 0, -7.105427357601002e-15)"/><path d="M 700.854979 668.132996 A 1.289 1.289 0 0 1 699.565979 669.421996 A 1.289 1.289 0 0 1 698.276979 668.132996 A 1.289 1.289 0 0 1 699.565979 666.843996 A 1.289 1.289 0 0 1 700.854979 668.132996 Z" fill="#5F0439" transform="matrix(1, 0, 0, 1, 0, -7.105427357601002e-15)"/><path d="M 719.276978 611.833008 A 2.5 2.5 0 0 1 716.776978 614.333008 A 2.5 2.5 0 0 1 714.276978 611.833008 A 2.5 2.5 0 0 1 716.776978 609.333008 A 2.5 2.5 0 0 1 719.276978 611.833008 Z" fill="#5F0439" transform="matrix(1, 0, 0, 1, 0, -7.105427357601002e-15)"/><path fill="#0C808B" d="M818.243,651.5h-74.764c-1.239,0-2.243-1.004-2.243-2.243v-9c0-1.239,1.004-2.243,2.243-2.243h74.764&#10;&#9;&#9;c1.239,0,2.243,1.004,2.243,2.243v9C820.486,650.496,819.482,651.5,818.243,651.5z" transform="matrix(1, 0, 0, 1, 0, -7.105427357601002e-15)"/><g transform="matrix(1, 0, 0, 1, 0, -7.105427357601002e-15)">
			<path fill="#97DCE2" d="M745.277,643.167c19,0,38,0,57,0c1.287,0,1.289-2,0-2c-19,0-38,0-57,0&#10;&#9;&#9;&#9;&#9;C743.991,641.167,743.988,643.167,745.277,643.167L745.277,643.167z"/>
		</g><g transform="matrix(1, 0, 0, 1, 0, -7.105427357601002e-15)">
			<path fill="#97DCE2" d="M809.111,643.167c1.287,0,1.289-2,0-2C807.824,641.167,807.822,643.167,809.111,643.167L809.111,643.167z&#10;&#9;&#9;&#9;&#9;"/>
		</g><g transform="matrix(1, 0, 0, 1, 0, -7.105427357601002e-15)">
			<path fill="#FFFFFF" d="M804.361,661.25c0,12.5,0,25,0,37.5c0,1.93,3,1.934,3,0c0-12.5,0-25,0-37.5&#10;&#9;&#9;&#9;&#9;C807.361,659.32,804.361,659.316,804.361,661.25L804.361,661.25z"/>
		</g><g transform="matrix(1, 0, 0, 1, 0, -7.105427357601002e-15)">
			<path fill="#FFFFFF" d="M805.861,709.25c1.93,0,1.934-3,0-3C803.93,706.25,803.927,709.25,805.861,709.25L805.861,709.25z"/>
		</g><g transform="matrix(1, 0, 0, 1, 0, -7.105427357601002e-15)">
			<path fill="#FFFFFF" d="M805.861,716.5c1.93,0,1.934-3,0-3C803.93,713.5,803.927,716.5,805.861,716.5L805.861,716.5z"/>
		</g><g transform="matrix(1, 0, 0, 1, 0, -7.105427357601002e-15)">
			<path fill="#FFFFFF" d="M683.759,703.316c2.658-4.671,5.317-9.343,7.975-14.014c0.956-1.68-1.635-3.194-2.59-1.514&#10;&#9;&#9;&#9;&#9;c-2.658,4.671-5.317,9.343-7.975,14.014C680.213,703.482,682.803,704.996,683.759,703.316L683.759,703.316z"/>
		</g><g transform="matrix(1, 0, 0, 1, 0, -7.105427357601002e-15)">
			<path fill="#FFFFFF" d="M693.861,683c1.93,0,1.934-3,0-3C691.93,680,691.927,683,693.861,683L693.861,683z"/>
		</g><g transform="matrix(1, 0, 0, 1, 0, -7.105427357601002e-15)">
			<path fill="#FFFFFF" d="M753.526,725.371c4.42-0.966,7.426-5.003,6.992-9.525c-0.183-1.905-3.185-1.924-3,0&#10;&#9;&#9;&#9;&#9;c0.313,3.262-1.575,5.93-4.789,6.633C750.843,722.89,751.641,725.783,753.526,725.371L753.526,725.371z"/>
		</g><g transform="matrix(1, 0, 0, 1, 0, -7.105427357601002e-15)">
			<path fill="#FFFFFF" d="M757.444,711.167c1.93,0,1.934-3,0-3C755.514,708.167,755.511,711.167,757.444,711.167L757.444,711.167z"/>
		</g><path d="M 1042.31897 603 H 1051.999969 V 733 H 1042.31897 V 603 Z" fill="#A9B3C1" transform="matrix(1, 0, 0, 1, 0, -7.105427357601002e-15)"/><path d="M 1064.341034 604.572021 A 17.181 17.181 0 0 1 1047.160034 621.753021 A 17.181 17.181 0 0 1 1029.979034 604.572021 A 17.181 17.181 0 0 1 1047.160034 587.391022 A 17.181 17.181 0 0 1 1064.341034 604.572021 Z" fill="#DE3C3D" transform="matrix(1, 0, 0, 1, 0, -7.105427357601002e-15)"/><path d="M 986.999981 552.153992 A 12.52 12.52 0 0 1 974.47998 564.673992 A 12.52 12.52 0 0 1 961.95998 552.153992 A 12.52 12.52 0 0 1 974.47998 539.633991 A 12.52 12.52 0 0 1 986.999981 552.153992 Z" fill="#69CAD3" transform="matrix(1, 0, 0, 1, 0, -7.105427357601002e-15)"/><path d="M 1008.217999 629.5 A 12.52 12.52 0 0 1 995.697998 642.02 A 12.52 12.52 0 0 1 983.177998 629.5 A 12.52 12.52 0 0 1 995.697998 616.98 A 12.52 12.52 0 0 1 1008.217999 629.5 Z" fill="#69CAD3" transform="matrix(1, 0, 0, 1, 0, -7.105427357601002e-15)"/><path d="M 1123.70396 599.911011 A 12.52 12.52 0 0 1 1111.18396 612.431011 A 12.52 12.52 0 0 1 1098.66396 599.911011 A 12.52 12.52 0 0 1 1111.18396 587.39101 A 12.52 12.52 0 0 1 1123.70396 599.911011 Z" fill="#69CAD3" transform="matrix(1, 0, 0, 1, 0, -7.105427357601002e-15)"/><path d="M 1131.130962 565.573975 A 12.52 12.52 0 0 1 1118.610962 578.093975 A 12.52 12.52 0 0 1 1106.090961 565.573975 A 12.52 12.52 0 0 1 1118.610962 553.053974 A 12.52 12.52 0 0 1 1131.130962 565.573975 Z" fill="#DE3C3D" transform="matrix(1, 0, 0, 1, 0, -7.105427357601002e-15)"/><path d="M 1032.332989 546.820984 A 12.52 12.52 0 0 1 1019.812988 559.340984 A 12.52 12.52 0 0 1 1007.292988 546.820984 A 12.52 12.52 0 0 1 1019.812988 534.300983 A 12.52 12.52 0 0 1 1032.332989 546.820984 Z" fill="#DE3C3D" transform="matrix(1, 0, 0, 1, 0, -7.105427357601002e-15)"/><path d="M 1117.994976 647.353027 A 12.52 12.52 0 0 1 1105.474976 659.873028 A 12.52 12.52 0 0 1 1092.954975 647.353027 A 12.52 12.52 0 0 1 1105.474976 634.833027 A 12.52 12.52 0 0 1 1117.994976 647.353027 Z" fill="#DE3C3D" transform="matrix(1, 0, 0, 1, 0, -7.105427357601002e-15)"/><g transform="matrix(1, 0, 0, 1, 0, -7.105427357601002e-15)">
			<path fill="#FFFFFF" d="M970,550.833c1.93,0,1.934-3,0-3C968.07,547.833,968.066,550.833,970,550.833L970,550.833z"/>
		</g><g transform="matrix(1, 0, 0, 1, 0, -7.105427357601002e-15)">
			<path fill="#FFFFFF" d="M1021.667,541.833c1.93,0,1.934-3,0-3C1019.736,538.833,1019.733,541.833,1021.667,541.833&#10;&#9;&#9;&#9;&#9;L1021.667,541.833z"/>
		</g><g transform="matrix(1, 0, 0, 1, 0, -7.105427357601002e-15)">
			<path fill="#FFFFFF" d="M1037.966,601.426c1.105-2.064,2.861-3.596,5.097-4.321c1.829-0.593,1.046-3.491-0.798-2.893&#10;&#9;&#9;&#9;&#9;c-2.958,0.959-5.417,2.949-6.89,5.699C1034.464,601.613,1037.053,603.13,1037.966,601.426L1037.966,601.426z"/>
		</g><g transform="matrix(1, 0, 0, 1, 0, -7.105427357601002e-15)">
			<path fill="#FFFFFF" d="M1049.333,595.833c1.93,0,1.933-3,0-3C1047.403,592.833,1047.4,595.833,1049.333,595.833&#10;&#9;&#9;&#9;&#9;L1049.333,595.833z"/>
		</g><g transform="matrix(1, 0, 0, 1, 0, -7.105427357601002e-15)">
			<path fill="#FFFFFF" d="M992.667,637.5c1.93,0,1.934-3,0-3C990.736,634.5,990.733,637.5,992.667,637.5L992.667,637.5z"/>
		</g><g transform="matrix(1, 0, 0, 1, 0, -7.105427357601002e-15)">
			<path fill="#FFFFFF" d="M1103.333,654.833c1.93,0,1.933-3,0-3C1101.403,651.833,1101.4,654.833,1103.333,654.833&#10;&#9;&#9;&#9;&#9;L1103.333,654.833z"/>
		</g><g transform="matrix(1, 0, 0, 1, 0, -7.105427357601002e-15)">
			<path fill="#FFFFFF" d="M1111,608.167c2.981-0.4,5.573-2.026,6.987-4.731c0.894-1.709-1.694-3.227-2.59-1.514&#10;&#9;&#9;&#9;&#9;c-0.88,1.683-2.471,2.987-4.397,3.245c-0.809,0.109-1.491,0.612-1.5,1.5C1109.493,607.395,1110.197,608.275,1111,608.167&#10;&#9;&#9;&#9;&#9;L1111,608.167z"/>
		</g><g transform="matrix(1, 0, 0, 1, 0, -7.105427357601002e-15)">
			<path fill="#FFFFFF" d="M1118.333,597.833c1.93,0,1.933-3,0-3C1116.403,594.833,1116.4,597.833,1118.333,597.833&#10;&#9;&#9;&#9;&#9;L1118.333,597.833z"/>
		</g><g transform="matrix(1, 0, 0, 1, 0, -7.105427357601002e-15)">
			<path fill="#FFFFFF" d="M1119.118,559.206c2.558,0.359,4.583,2.419,4.207,5.134c-0.261,1.888,2.629,2.705,2.893,0.798&#10;&#9;&#9;&#9;&#9;c0.581-4.196-1.946-8.213-6.302-8.824C1118.027,556.049,1117.211,558.939,1119.118,559.206L1119.118,559.206z"/>
		</g><g transform="matrix(1, 0, 0, 1, 0, -7.105427357601002e-15)">
			<path fill="#FFFFFF" d="M1123.667,571.667c1.93,0,1.934-3,0-3C1121.736,568.667,1121.733,571.667,1123.667,571.667&#10;&#9;&#9;&#9;&#9;L1123.667,571.667z"/>
		</g><path d="M 613.458977 513.132996 A 3.333 3.333 0 0 1 610.125977 516.465996 A 3.333 3.333 0 0 1 606.792977 513.132996 A 3.333 3.333 0 0 1 610.125977 509.799996 A 3.333 3.333 0 0 1 613.458977 513.132996 Z" fill="#D6562B" transform="matrix(1, 0, 0, 1, 0, -7.105427357601002e-15)"/>

</svg>