<?xml version="1.0" encoding="utf-8"?>
<svg id="master-artboard" viewBox="0 0 1400 923.6543579101562" version="1.1" xmlns="http://www.w3.org/2000/svg" x="0px" y="0px" style="enable-background:new 0 0 1400 980;" width="1400px" height="923.6543579101562px"><rect id="ee-background" x="0" y="0" width="1400" height="923.6543579101562" style="fill: rgb(255, 255, 255); fill-opacity: 1; pointer-events: none;"/>

<linearGradient id="SVGID_1_" gradientUnits="userSpaceOnUse" x1="693.8633" y1="791.6884" x2="693.8633" y2="33.9834">
	<stop offset="5.494510e-03" style="stop-color:#E0D47D"/>
	<stop offset="0.1923" style="stop-color:#E0AD7D"/>
	<stop offset="0.6429" style="stop-color:#E07596"/>
	<stop offset="0.7092" style="stop-color:#DB7295"/>
	<stop offset="0.7911" style="stop-color:#CC6B93"/>
	<stop offset="0.8811" style="stop-color:#B35F8F"/>
	<stop offset="0.9763" style="stop-color:#904F8A"/>
	<stop offset="1" style="stop-color:#864A89"/>
</linearGradient>
<path d="M -29 -29 H 1416.699951 V 939.400024 H -29 V -29 Z" class="st0" style="fill: url('#SVGID_1_'); fill-opacity: 0.53;"/>
<path class="st1" d="M1010.9,734.3c-0.6-305.1-248.3-551.9-553.4-551.4C152.5,183.5-94.4,431.3-93.9,736.4&#10;&#9;c0.6,305.1,248.3,551.9,553.4,551.4C764.6,1287.2,1011.5,1039.4,1010.9,734.3z" style="opacity: 0.06; fill: rgb(252, 240, 89); fill-opacity: 0.53;"/>
<path d="M 855.899994 737.299988 A 401.399994 401.399994 0 0 1 454.5 1138.699982 A 401.399994 401.399994 0 0 1 53.100006 737.299988 A 401.399994 401.399994 0 0 1 454.5 335.899994 A 401.399994 401.399994 0 0 1 855.899994 737.299988 Z" class="st2" style="opacity: 0.1; fill: rgb(252, 240, 89); fill-opacity: 0.53;"/>
<path d="M 725.899994 735.299988 A 267.399994 267.399994 0 0 1 458.5 1002.699982 A 267.399994 267.399994 0 0 1 191.100006 735.299988 A 267.399994 267.399994 0 0 1 458.5 467.899994 A 267.399994 267.399994 0 0 1 725.899994 735.299988 Z" class="st3" style="opacity: 0.09; fill: rgb(252, 240, 89); fill-opacity: 0.53;"/>
<path d="M 596.5 735.299988 A 138 138 0 0 1 458.5 873.299988 A 138 138 0 0 1 320.5 735.299988 A 138 138 0 0 1 458.5 597.299988 A 138 138 0 0 1 596.5 735.299988 Z" class="st2" style="opacity: 0.1; fill: rgb(252, 240, 89); fill-opacity: 0.53;"/>
<path class="st4" d="M1070.7,714.4l391.5-2l-1.9-375.4l-59.3,7.3c0.6-2.4,0.9-5,0.9-7.6c-0.2-16.6-13.8-29.8-30.4-29.6&#10;&#9;c-10.5,0.1-19.7,5.7-24.9,13.9c-6.5-4.3-14.3-6.7-22.7-6.7c-22.8,0.1-41.2,18.7-41.1,41.5c0,9.4,3.2,18,8.5,24.9&#10;&#9;c-16.1,0.8-28.7,14.2-28.5,30.4c0,0.8,0.1,1.7,0.1,2.5c-17.9,3.7-32.9,15-41.7,30.4c-6.1-15.3-21.1-26.1-38.6-26.1&#10;&#9;c-22.8,0.1-41.2,18.7-41.1,41.5c0,8.9,2.9,17,7.7,23.7c-0.5,0-1.1,0-1.6,0c-14.8,0.2-27,11.1-29.2,25.3c-7.7-3.2-16.2-5-25-4.9&#10;&#9;c-34.8,0.4-62.7,28.9-62.3,63.8c0.2,18.4,8.2,34.8,20.9,46.2c-7.6,5.5-12.4,14.5-12.3,24.6c0,0.2,0,0.4,0,0.6&#10;&#9;c-8.9-4.6-19-7.2-29.7-7.1c-16.4,0.2-31.3,6.6-42.4,17.1c-5.9-0.8-12-1.3-18.2-1.3c-72.9,0-132,59.1-132,132s59.1,132,132,132&#10;&#9;s132-59.1,132-132c0-20.9-4.9-40.6-13.5-58.2C1069,719.1,1069.9,716.8,1070.7,714.4z" style="opacity: 0.1; fill: rgb(255, 255, 255); fill-opacity: 0.53;"/>
<path class="st4" d="M61,822.4l-391.5-2l1.9-375.4l59.3,7.3c-0.6-2.4-0.9-5-0.9-7.6c0.2-16.6,13.8-29.8,30.4-29.6&#10;&#9;c10.5,0.1,19.7,5.7,24.9,13.9c6.5-4.3,14.3-6.7,22.7-6.7c22.8,0.1,41.2,18.7,41.1,41.5c0,9.4-3.2,18-8.5,24.9&#10;&#9;c16.1,0.8,28.7,14.2,28.5,30.4c0,0.8-0.1,1.7-0.1,2.5c17.9,3.7,32.9,15,41.7,30.4c6.1-15.3,21.1-26.1,38.6-26.1&#10;&#9;c22.8,0.1,41.2,18.7,41.1,41.5c0,8.9-2.9,17-7.7,23.7c0.5,0,1.1,0,1.6,0c14.8,0.2,27,11.1,29.2,25.3c7.7-3.2,16.2-5,25-4.9&#10;&#9;c34.8,0.4,62.7,28.9,62.3,63.8c-0.2,18.4-8.2,34.8-20.9,46.2C87.2,727,92.1,736,92,746.1c0,0.2,0,0.4,0,0.6c8.9-4.6,19-7.2,29.7-7.1&#10;&#9;c16.4,0.2,31.3,6.6,42.4,17.1c5.9-0.8,12-1.3,18.2-1.3c72.9,0,132,59.1,132,132s-59.1,132-132,132s-132-59.1-132-132&#10;&#9;c0-20.9,4.9-40.6,13.5-58.2C62.7,827.1,61.8,824.8,61,822.4z" style="opacity: 0.1; fill: rgb(255, 255, 255); fill-opacity: 0.53;"/>

<path class="st6" d="M1458.1,551.5c24.2-11.9,41.5-36.1,43.4-64.9c2.8-43-29.8-80.1-72.8-82.9c-43-2.8-80.1,29.8-82.9,72.8&#10;&#9;c-1.1,17.4,3.5,33.7,12.3,47.3c-9.9,4.8-18.1,12.6-23.4,22.2c-10.7-9.8-24.7-16.2-40.3-17.2c-36.3-2.4-67.7,25.2-70,61.5&#10;&#9;c-0.2,3.3-0.2,6.6,0.1,9.8c-5.2-3.5-11.4-5.7-18.2-6c-20.1-1.1-37.2,14.2-38.4,34.2c-6.9-3-14.4-5-22.4-5.5&#10;&#9;c-36.3-2.4-67.7,25.2-70,61.5c-2.4,36.3,25.2,67.7,61.5,70c25.2,1.6,48-11.1,60.4-31.2l282.4,45.3L1458.1,551.5z" style="opacity: 0.14; fill: rgb(255, 255, 255); fill-opacity: 0.53;"/>











<path class="st2" d="M305.5,715l3-2.5c-3.9-6.6-6.7-14.1-7.4-16c0.7,0.4,3,1,9.8,1.5c-7.6-5-16.6-32-19.2-40.5&#10;&#9;c0.5,7.7,2.5,20.2,10,35.5c-6,0-6.6-0.2-6.6-0.2L305.5,715z" style="opacity: 0.1; fill: rgb(252, 240, 89); fill-opacity: 0.53;"/>
<path d="M 177.600006 125.099998 A 4.5 4.5 0 0 1 173.100006 129.599998 A 4.5 4.5 0 0 1 168.600006 125.099998 A 4.5 4.5 0 0 1 173.100006 120.599998 A 4.5 4.5 0 0 1 177.600006 125.099998 Z" class="st10" style="opacity: 0.15; fill: rgb(255, 255, 255); fill-opacity: 0.53;"/>
<path d="M 960.599976 296.100006 A 4.5 4.5 0 0 1 956.099976 300.600006 A 4.5 4.5 0 0 1 951.599976 296.100006 A 4.5 4.5 0 0 1 956.099976 291.600006 A 4.5 4.5 0 0 1 960.599976 296.100006 Z" class="st10" style="opacity: 0.15; fill: rgb(255, 255, 255); fill-opacity: 0.53;"/>
<path d="M 1190.099976 162.600006 A 4.5 4.5 0 0 1 1185.599976 167.100006 A 4.5 4.5 0 0 1 1181.099976 162.600006 A 4.5 4.5 0 0 1 1185.599976 158.100006 A 4.5 4.5 0 0 1 1190.099976 162.600006 Z" class="st10" style="opacity: 0.15; fill: rgb(255, 255, 255); fill-opacity: 0.53;"/>
<path d="M 66.599998 501.600006 A 4.5 4.5 0 0 1 62.099998 506.100006 A 4.5 4.5 0 0 1 57.599998 501.600006 A 4.5 4.5 0 0 1 62.099998 497.100006 A 4.5 4.5 0 0 1 66.599998 501.600006 Z" class="st10" style="opacity: 0.15; fill: rgb(255, 255, 255); fill-opacity: 0.53;"/>

<path d="M 1089.599976 446.100006 A 4.5 4.5 0 0 1 1085.099976 450.600006 A 4.5 4.5 0 0 1 1080.599976 446.100006 A 4.5 4.5 0 0 1 1085.099976 441.600006 A 4.5 4.5 0 0 1 1089.599976 446.100006 Z" class="st10" style="opacity: 0.15; fill: rgb(255, 255, 255); fill-opacity: 0.53;"/>
<path d="M 1005.599976 71.099998 A 4.5 4.5 0 0 1 1001.099976 75.599998 A 4.5 4.5 0 0 1 996.599976 71.099998 A 4.5 4.5 0 0 1 1001.099976 66.599998 A 4.5 4.5 0 0 1 1005.599976 71.099998 Z" class="st10" style="opacity: 0.15; fill: rgb(255, 255, 255); fill-opacity: 0.53;"/>
</svg>