<?xml version="1.0" encoding="utf-8"?>
<svg id="master-artboard" viewBox="0 0 1400 1400" version="1.1" xmlns="http://www.w3.org/2000/svg" x="0px" y="0px" style="enable-background:new 0 0 1400 1400;" width="1400px" height="1400px" xmlns:xlink="http://www.w3.org/1999/xlink">

<g transform="matrix(1, 0, 0, 1, 0, -7.105427357601002e-15)">
		<defs>
			<path d="M 0 0 H 1400 V 1400 H 0 V 0 Z" id="SVGID_1_"/>
		</defs>
		<clipPath id="SVGID_2_">
			<use style="overflow:visible;" xlink:href="#SVGID_1_"/>
		</clipPath>
		<g class="st0" style="clip-path: url('#SVGID_2_');">
			<g>
				<g>
					<g>
						<g>
							<path d="M 210.10000610351562 1374.9000244140625 L 344.5 1240.5 L 210 1106 L 75.5999984741211 1240.5 L -58.900001525878906 1374.9000244140625 L 75.5999984741211 1509.4000244140625 L 210.10000610351562 1643.800048828125 L 344.5 1509.4000244140625 Z" class="st1" style="fill: rgb(187, 213, 242);"/>
						</g>
					</g>
				</g>
				<g>
					<path d="M 1554.5999755859375 1374.9000244140625 L 1420.0999755859375 1240.5 L 1285.699951171875 1106 L 1151.199951171875 1240.5 L 1285.699951171875 1374.9000244140625 L 1151.199951171875 1509.4000244140625 L 1285.699951171875 1643.800048828125 L 1420.0999755859375 1509.4000244140625 Z" class="st1" style="fill: rgb(187, 213, 242);"/>
					<path d="M 882.2999877929688 1509.4000244140625 L 747.9000244140625 1374.9000244140625 L 613.4000244140625 1240.5 L 479 1106 L 344.5 1240.5 L 479 1374.9000244140625 L 747.9000244140625 1643.800048828125 Z" class="st1" style="fill: rgb(187, 213, 242);"/>
					<path d="M 1420.0999755859375 702.7000122070312 L 1554.5999755859375 568.2000122070312 L 1420.0999755859375 433.79998779296875 L 1285.699951171875 568.2000122070312 L 1151.199951171875 702.7000122070312 L 1285.699951171875 837.0999755859375 L 1420.0999755859375 971.5999755859375 L 1554.5999755859375 837.0999755859375 Z" class="st2" style="fill: rgb(222, 195, 225);"/>
					<path d="M 747.9000244140625 1106 L 882.2999877929688 971.5999755859375 L 747.9000244140625 837.0999755859375 L 613.4000244140625 971.5999755859375 L 479 1106 L 613.4000244140625 1240.5 L 747.9000244140625 1374.9000244140625 L 882.2999877929688 1240.5 Z" class="st2" style="fill: rgb(222, 195, 225);"/>
					<path d="M 1285.699951171875 1106 L 1151.199951171875 971.5999755859375 L 1016.7999877929688 1106 L 882.2999877929688 971.5999755859375 L 747.9000244140625 1106 L 882.2999877929688 1240.5 L 1016.7999877929688 1374.9000244140625 Z" class="st3" style="fill: rgb(237, 206, 229);"/>
					<path d="M 747.9000244140625 837.0999755859375 L 613.4000244140625 702.7000122070312 L 478.8999938964844 837.0999755859375 L 344.5 971.5999755859375 L 210 1106 L 344.5 1240.5 L 479 1106 L 613.4000244140625 971.5999755859375 Z" class="st4" style="fill: rgb(212, 224, 249);"/>
					<path d="M 1016.7999877929688 568.2000122070312 L 882.2999877929688 433.79998779296875 L 747.7999877929688 568.2000122070312 L 613.4000244140625 702.7000122070312 L 747.9000244140625 837.0999755859375 L 882.2999877929688 702.7000122070312 Z" class="st2" style="fill: rgb(222, 195, 225);"/>
					<path d="M 210 1106 L 75.5999984741211 971.5999755859375 L -58.900001525878906 1106 L -193.3000030517578 971.5999755859375 L -327.79998779296875 1106 L -58.900001525878906 1374.9000244140625 L 75.5999984741211 1240.5 Z" class="st4" style="fill: rgb(212, 224, 249);"/>
					<path d="M 344.5 702.7000122070312 L 478.8999938964844 568.2000122070312 L 344.5 433.79998779296875 L 210 568.2000122070312 L 75.5999984741211 702.7000122070312 L 344.5 971.5999755859375 L 478.8999938964844 837.0999755859375 Z" class="st2" style="fill: rgb(222, 195, 225);"/>
				</g>
			</g>
			<path d="M 613.4000244140625 1509.4000244140625 L 479 1374.9000244140625 L 344.5 1240.5 L 210.10000610351562 1374.9000244140625 L 344.5 1509.4000244140625 L 479 1643.800048828125 Z" class="st4" style="fill: rgb(212, 224, 249);"/>
			<path d="M 344.5 971.5999755859375 L 75.5999984741211 702.7000122070312 L -58.900001525878906 837.0999755859375 L -193.3000030517578 971.5999755859375 L -58.900001525878906 1106 L 75.5999984741211 971.5999755859375 L 210 1106 Z" class="st3" style="fill: rgb(237, 206, 229);"/>
			<path d="M 747.7999877929688 568.2000122070312 L 613.4000244140625 433.79998779296875 L 478.8999938964844 568.2000122070312 L 344.5 702.7000122070312 L 478.8999938964844 837.0999755859375 L 613.4000244140625 702.7000122070312 Z" class="st3" style="fill: rgb(237, 206, 229);"/>
			<path d="M 1420.0999755859375 164.89999389648438 L 1285.699951171875 30.399999618530273 L 1151.199951171875 -104 L 1016.7000122070312 30.399999618530273 L 1151.199951171875 164.89999389648438 L 1285.699951171875 299.29998779296875 Z" class="st2" style="fill: rgb(222, 195, 225);"/>
			<path d="M 1823.5 568.2000122070312 L 1689 433.79998779296875 L 1554.5999755859375 299.29998779296875 L 1420.0999755859375 433.79998779296875 L 1554.5999755859375 568.2000122070312 L 1420.0999755859375 702.7000122070312 L 1554.5999755859375 837.0999755859375 Z" class="st3" style="fill: rgb(237, 206, 229);"/>
			<path d="M 1823.5 1106 L 1689 971.5999755859375 L 1554.5999755859375 837.0999755859375 L 1285.699951171875 1106 L 1420.0999755859375 1240.5 L 1554.5999755859375 1106 L 1689 1240.5 Z" class="st4" style="fill: rgb(212, 224, 249);"/>
			<path d="M 1420.0999755859375 971.5999755859375 L 1285.699951171875 837.0999755859375 L 1151.199951171875 702.7000122070312 L 882.2999877929688 971.5999755859375 L 1016.7999877929688 1106 L 1151.199951171875 971.5999755859375 L 1285.699951171875 1106 Z" class="st1" style="fill: rgb(187, 213, 242);"/>
			<path d="M 1285.699951171875 1374.9000244140625 L 1151.199951171875 1240.5 L 1016.7999877929688 1374.9000244140625 L 882.2999877929688 1240.5 L 747.9000244140625 1374.9000244140625 L 1016.7999877929688 1643.800048828125 L 1151.199951171875 1509.4000244140625 Z" class="st4" style="fill: rgb(212, 224, 249);"/>
			<path d="M 1285.699951171875 568.2000122070312 L 1151.199951171875 433.79998779296875 L 1016.7999877929688 568.2000122070312 L 882.2999877929688 702.7000122070312 L 747.9000244140625 837.0999755859375 L 882.2999877929688 971.5999755859375 Z" class="st4" style="fill: rgb(212, 224, 249);"/>
			<path d="M 75.5999984741211 702.7000122070312 L -58.900001525878906 568.2000122070312 L -193.3000030517578 702.7000122070312 L -327.79998779296875 568.2000122070312 L -462.20001220703125 702.7000122070312 L -193.3000030517578 971.5999755859375 L -58.900001525878906 837.0999755859375 Z" class="st2" style="fill: rgb(222, 195, 225);"/>
			<path d="M 882.2999877929688 164.89999389648438 L 613.4000244140625 -104 L 478.8999938964844 30.399999618530273 L 344.5 164.89999389648438 L 478.8999938964844 299.29998779296875 L 613.4000244140625 164.89999389648438 L 747.7999877929688 299.29998779296875 Z" class="st2" style="fill: rgb(222, 195, 225);"/>
			
				<path d="M 316.600006 176.399994 H 506.700012 V 556.699982 H 316.600006 V 176.399994 Z" transform="matrix(0.7071 -0.7071 0.7071 0.7071 -138.588 398.4811)" class="st5" style="fill: rgb(244, 218, 226);"/>
			<path d="M 210 568.2000122070312 L -58.900001525878906 299.29998779296875 L -193.3000030517578 433.79998779296875 L -327.79998779296875 299.29998779296875 L -462.20001220703125 433.79998779296875 L -193.3000030517578 702.7000122070312 L -58.900001525878906 568.2000122070312 L 75.5999984741211 702.7000122070312 Z" class="st3" style="fill: rgb(237, 206, 229);"/>
			
				<path d="M 585.5 -361.399994 H 775.600006 V 18.899994 H 585.5 V -361.399994 Z" transform="matrix(0.7071 -0.7071 0.7071 0.7071 320.456 431.104)" class="st6" style="fill: rgb(247, 231, 222);"/>
			<path d="M 1420.0999755859375 433.79998779296875 L 1285.699951171875 299.29998779296875 L 1151.199951171875 164.89999389648438 L 1016.7000122070312 299.29998779296875 L 882.2999877929688 433.79998779296875 L 1016.7999877929688 568.2000122070312 L 1151.199951171875 433.79998779296875 L 1285.699951171875 568.2000122070312 Z" class="st3" style="fill: rgb(237, 206, 229);"/>
			<path d="M 1554.5999755859375 30.399999618530273 L 1420.0999755859375 -104 L 1285.699951171875 -238.5 L 1151.199951171875 -104 L 1285.699951171875 30.399999618530273 L 1420.0999755859375 164.89999389648438 Z" class="st6" style="fill: rgb(247, 231, 222);"/>
			<path d="M 1689 164.89999389648438 L 1554.5999755859375 30.399999618530273 L 1420.0999755859375 164.89999389648438 L 1285.699951171875 299.29998779296875 L 1420.0999755859375 433.79998779296875 L 1554.5999755859375 299.29998779296875 Z" class="st6" style="fill: rgb(247, 231, 222);"/>
			<path d="M 1151.199951171875 164.89999389648438 L 1016.7000122070312 30.399999618530273 L 882.2999877929688 164.89999389648438 L 747.7999877929688 299.29998779296875 L 613.4000244140625 164.89999389648438 L 478.8999938964844 299.29998779296875 L 747.7999877929688 568.2000122070312 L 882.2999877929688 433.79998779296875 L 1016.7000122070312 299.29998779296875 Z" class="st6" style="fill: rgb(247, 231, 222);"/>
			<path d="M 210 299.29998779296875 L 344.5 164.89999389648438 L 210 30.399999618530273 L 75.5999984741211 164.89999389648438 L -58.900001525878906 299.29998779296875 L 210 568.2000122070312 L 344.5 433.79998779296875 Z" class="st6" style="fill: rgb(247, 231, 222);"/>
			<path d="M 210 30.399999618530273 L 75.5999984741211 -104 L -58.900001525878906 30.399999618530273 L -193.3000030517578 164.89999389648438 L -327.79998779296875 299.29998779296875 L -193.3000030517578 433.79998779296875 L -58.900001525878906 299.29998779296875 L 75.5999984741211 164.89999389648438 Z" class="st2" style="fill: rgb(222, 195, 225);"/>
			<path d="M 613.4000244140625 -104 L 478.8999938964844 -238.5 L 344.5 -104 L 210 -238.5 L 75.5999984741211 -104 L 344.5 164.89999389648438 L 478.8999938964844 30.399999618530273 Z" class="st5" style="fill: rgb(244, 218, 226);"/>
			<path d="M 1151.199951171875 -104 L 1016.7000122070312 -238.5 L 882.2999877929688 -104 L 747.7999877929688 30.399999618530273 L 882.2999877929688 164.89999389648438 L 1016.7000122070312 30.399999618530273 Z" class="st5" style="fill: rgb(244, 218, 226);"/>
		</g>
	</g>
</svg>